<mxfile host="65bd71144e">
    <diagram id="C5RBs43oDa-KdzZeNtuy" name="Page-1">
        <mxGraphModel dx="414" dy="799" grid="0" gridSize="10" guides="1" tooltips="1" connect="1" arrows="1" fold="1" page="1" pageScale="1" pageWidth="827" pageHeight="1169" background="#FFFFFF" math="0" shadow="0">
            <root>
                <mxCell id="WIyWlLk6GJQsqaUBKTNV-0"/>
                <mxCell id="WIyWlLk6GJQsqaUBKTNV-1" parent="WIyWlLk6GJQsqaUBKTNV-0"/>
                <mxCell id="WIyWlLk6GJQsqaUBKTNV-2" value="" style="rounded=0;html=1;jettySize=auto;orthogonalLoop=1;fontSize=11;endArrow=block;endFill=0;endSize=8;strokeWidth=1;shadow=0;labelBackgroundColor=none;edgeStyle=orthogonalEdgeStyle;fillColor=#0050ef;strokeColor=#001DBC;" parent="WIyWlLk6GJQsqaUBKTNV-1" source="WIyWlLk6GJQsqaUBKTNV-3" target="WIyWlLk6GJQsqaUBKTNV-6" edge="1">
                    <mxGeometry relative="1" as="geometry"/>
                </mxCell>
                <mxCell id="WIyWlLk6GJQsqaUBKTNV-3" value="&lt;div&gt;Start&lt;/div&gt;" style="rounded=1;whiteSpace=wrap;html=1;fontSize=12;glass=0;strokeWidth=1;shadow=0;" parent="WIyWlLk6GJQsqaUBKTNV-1" vertex="1">
                    <mxGeometry x="160" y="80" width="120" height="40" as="geometry"/>
                </mxCell>
                <mxCell id="WIyWlLk6GJQsqaUBKTNV-4" value="Found" style="rounded=0;html=1;jettySize=auto;orthogonalLoop=1;fontSize=11;endArrow=block;endFill=0;endSize=8;strokeWidth=1;shadow=0;labelBackgroundColor=default;edgeStyle=orthogonalEdgeStyle;fillColor=#0050ef;strokeColor=#001DBC;" parent="WIyWlLk6GJQsqaUBKTNV-1" source="WIyWlLk6GJQsqaUBKTNV-6" edge="1">
                    <mxGeometry y="20" relative="1" as="geometry">
                        <mxPoint as="offset"/>
                        <mxPoint x="220" y="290" as="targetPoint"/>
                    </mxGeometry>
                </mxCell>
                <mxCell id="WIyWlLk6GJQsqaUBKTNV-5" value="found'" style="edgeStyle=orthogonalEdgeStyle;rounded=0;html=1;jettySize=auto;orthogonalLoop=1;fontSize=11;endArrow=block;endFill=0;endSize=8;strokeWidth=1;shadow=0;labelBackgroundColor=default;fillColor=#0050ef;strokeColor=#001DBC;" parent="WIyWlLk6GJQsqaUBKTNV-1" source="WIyWlLk6GJQsqaUBKTNV-6" edge="1">
                    <mxGeometry y="10" relative="1" as="geometry">
                        <mxPoint as="offset"/>
                        <mxPoint x="367" y="210" as="targetPoint"/>
                    </mxGeometry>
                </mxCell>
                <mxCell id="WIyWlLk6GJQsqaUBKTNV-6" value="is marker found" style="rhombus;whiteSpace=wrap;html=1;shadow=0;fontFamily=Helvetica;fontSize=12;align=center;strokeWidth=1;spacing=6;spacingTop=-4;" parent="WIyWlLk6GJQsqaUBKTNV-1" vertex="1">
                    <mxGeometry x="170" y="170" width="100" height="80" as="geometry"/>
                </mxCell>
                <mxCell id="tWdjVGphj6DftXf5OQEN-0" value="turn_to_find" style="rounded=1;whiteSpace=wrap;html=1;" parent="WIyWlLk6GJQsqaUBKTNV-1" vertex="1">
                    <mxGeometry x="367" y="180" width="120" height="60" as="geometry"/>
                </mxCell>
                <mxCell id="tWdjVGphj6DftXf5OQEN-1" value="turn_to_marker" style="rounded=1;whiteSpace=wrap;html=1;" parent="WIyWlLk6GJQsqaUBKTNV-1" vertex="1">
                    <mxGeometry x="160" y="290" width="120" height="60" as="geometry"/>
                </mxCell>
                <mxCell id="tWdjVGphj6DftXf5OQEN-2" value="" style="endArrow=classic;html=1;rounded=0;exitX=0.5;exitY=1;exitDx=0;exitDy=0;fillColor=#0050ef;strokeColor=#001DBC;" parent="WIyWlLk6GJQsqaUBKTNV-1" source="tWdjVGphj6DftXf5OQEN-1" edge="1">
                    <mxGeometry width="50" height="50" relative="1" as="geometry">
                        <mxPoint x="490" y="320" as="sourcePoint"/>
                        <mxPoint x="220" y="410" as="targetPoint"/>
                    </mxGeometry>
                </mxCell>
                <mxCell id="tWdjVGphj6DftXf5OQEN-10" value="TurnDone" style="edgeLabel;html=1;align=center;verticalAlign=middle;resizable=0;points=[];" parent="tWdjVGphj6DftXf5OQEN-2" vertex="1" connectable="0">
                    <mxGeometry x="-0.2609" y="-3" relative="1" as="geometry">
                        <mxPoint as="offset"/>
                    </mxGeometry>
                </mxCell>
                <mxCell id="tWdjVGphj6DftXf5OQEN-3" value="drive_to_marker" style="rounded=1;whiteSpace=wrap;html=1;" parent="WIyWlLk6GJQsqaUBKTNV-1" vertex="1">
                    <mxGeometry x="160" y="410" width="120" height="60" as="geometry"/>
                </mxCell>
                <mxCell id="tWdjVGphj6DftXf5OQEN-13" value="" style="curved=1;endArrow=classic;html=1;rounded=0;exitX=1;exitY=0;exitDx=0;exitDy=0;entryX=1;entryY=1;entryDx=0;entryDy=0;fillColor=#0050ef;strokeColor=#001DBC;" parent="WIyWlLk6GJQsqaUBKTNV-1" source="tWdjVGphj6DftXf5OQEN-3" target="tWdjVGphj6DftXf5OQEN-3" edge="1">
                    <mxGeometry width="50" height="50" relative="1" as="geometry">
                        <mxPoint x="320" y="360" as="sourcePoint"/>
                        <mxPoint x="370" y="310" as="targetPoint"/>
                        <Array as="points">
                            <mxPoint x="340" y="380"/>
                            <mxPoint x="340" y="431"/>
                            <mxPoint x="340" y="490"/>
                        </Array>
                    </mxGeometry>
                </mxCell>
                <mxCell id="tWdjVGphj6DftXf5OQEN-14" value="DriveDone'" style="edgeLabel;html=1;align=center;verticalAlign=middle;resizable=0;points=[];labelBackgroundColor=#000000;fontColor=#FFFFFF;" parent="tWdjVGphj6DftXf5OQEN-13" vertex="1" connectable="0">
                    <mxGeometry x="-0.065" y="-2" relative="1" as="geometry">
                        <mxPoint as="offset"/>
                    </mxGeometry>
                </mxCell>
                <mxCell id="tWdjVGphj6DftXf5OQEN-16" value="TurnDone'" style="curved=1;endArrow=classic;html=1;rounded=0;exitX=0.25;exitY=1;exitDx=0;exitDy=0;entryX=0.75;entryY=1;entryDx=0;entryDy=0;fillColor=#0050ef;strokeColor=#001DBC;" parent="WIyWlLk6GJQsqaUBKTNV-1" source="tWdjVGphj6DftXf5OQEN-0" target="tWdjVGphj6DftXf5OQEN-0" edge="1">
                    <mxGeometry width="50" height="50" relative="1" as="geometry">
                        <mxPoint x="248" y="284" as="sourcePoint"/>
                        <mxPoint x="298" y="234" as="targetPoint"/>
                        <Array as="points">
                            <mxPoint x="373" y="296"/>
                            <mxPoint x="476" y="310"/>
                        </Array>
                    </mxGeometry>
                </mxCell>
                <mxCell id="3" value="" style="curved=1;endArrow=classic;html=1;labelBackgroundColor=default;exitX=0.5;exitY=0;exitDx=0;exitDy=0;entryX=1;entryY=0;entryDx=0;entryDy=0;fillColor=#0050ef;strokeColor=#001DBC;" parent="WIyWlLk6GJQsqaUBKTNV-1" source="tWdjVGphj6DftXf5OQEN-0" target="WIyWlLk6GJQsqaUBKTNV-6" edge="1">
                    <mxGeometry width="50" height="50" relative="1" as="geometry">
                        <mxPoint x="399" y="179" as="sourcePoint"/>
                        <mxPoint x="420" y="83" as="targetPoint"/>
                        <Array as="points">
                            <mxPoint x="333" y="138"/>
                        </Array>
                    </mxGeometry>
                </mxCell>
                <mxCell id="4" value="TurnDone" style="edgeLabel;html=1;align=center;verticalAlign=middle;resizable=0;points=[];" parent="3" vertex="1" connectable="0">
                    <mxGeometry x="-0.104" y="18" relative="1" as="geometry">
                        <mxPoint as="offset"/>
                    </mxGeometry>
                </mxCell>
                <mxCell id="5" value="Reset found flag" style="rounded=1;whiteSpace=wrap;html=1;" parent="WIyWlLk6GJQsqaUBKTNV-1" vertex="1">
                    <mxGeometry x="160" y="509" width="120" height="60" as="geometry"/>
                </mxCell>
                <mxCell id="6" value="DriveDone" style="endArrow=classic;html=1;labelBackgroundColor=default;exitX=0.5;exitY=1;exitDx=0;exitDy=0;entryX=0.5;entryY=0;entryDx=0;entryDy=0;fillColor=#0050ef;strokeColor=#001DBC;" parent="WIyWlLk6GJQsqaUBKTNV-1" source="tWdjVGphj6DftXf5OQEN-3" target="5" edge="1">
                    <mxGeometry width="50" height="50" relative="1" as="geometry">
                        <mxPoint x="474" y="434" as="sourcePoint"/>
                        <mxPoint x="524" y="384" as="targetPoint"/>
                    </mxGeometry>
                </mxCell>
                <mxCell id="9" value="" style="curved=1;endArrow=classic;html=1;labelBackgroundColor=default;entryX=0;entryY=0.5;entryDx=0;entryDy=0;exitX=0;exitY=0.5;exitDx=0;exitDy=0;fillColor=#0050ef;strokeColor=#001DBC;" parent="WIyWlLk6GJQsqaUBKTNV-1" source="5" target="WIyWlLk6GJQsqaUBKTNV-6" edge="1">
                    <mxGeometry width="50" height="50" relative="1" as="geometry">
                        <mxPoint x="81" y="591" as="sourcePoint"/>
                        <mxPoint x="108" y="456" as="targetPoint"/>
                        <Array as="points">
                            <mxPoint x="24" y="379"/>
                        </Array>
                    </mxGeometry>
                </mxCell>
                <mxCell id="10" value="" style="curved=1;endArrow=classic;html=1;entryX=1;entryY=0;entryDx=0;entryDy=0;exitX=1;exitY=0.75;exitDx=0;exitDy=0;fillColor=#0050ef;strokeColor=#001DBC;" parent="WIyWlLk6GJQsqaUBKTNV-1" source="tWdjVGphj6DftXf5OQEN-1" target="tWdjVGphj6DftXf5OQEN-1" edge="1">
                    <mxGeometry width="50" height="50" relative="1" as="geometry">
                        <mxPoint x="375" y="396" as="sourcePoint"/>
                        <mxPoint x="425" y="346" as="targetPoint"/>
                        <Array as="points">
                            <mxPoint x="335" y="359"/>
                            <mxPoint x="335" y="285"/>
                        </Array>
                    </mxGeometry>
                </mxCell>
                <mxCell id="11" value="Turn'" style="edgeLabel;html=1;align=center;verticalAlign=middle;resizable=0;points=[];" parent="10" vertex="1" connectable="0">
                    <mxGeometry x="0.1415" y="5" relative="1" as="geometry">
                        <mxPoint as="offset"/>
                    </mxGeometry>
                </mxCell>
            </root>
        </mxGraphModel>
    </diagram>
</mxfile>